<mxfile host="app.diagrams.net" agent="Mozilla/5.0 (Windows NT 10.0; Win64; x64) AppleWebKit/537.36 (KHTML, like Gecko) Chrome/133.0.0.0 Safari/537.36" version="26.0.16">
  <diagram id="6a731a19-8d31-9384-78a2-239565b7b9f0" name="Page-1">
    <mxGraphModel dx="1500" dy="796" grid="1" gridSize="10" guides="1" tooltips="1" connect="1" arrows="1" fold="1" page="1" pageScale="1" pageWidth="1169" pageHeight="827" background="none" math="0" shadow="0">
      <root>
        <mxCell id="0" />
        <mxCell id="1" parent="0" />
        <mxCell id="xWqsC73nyLLBT6MzewJM-56" value="&lt;font style=&quot;font-size: 18px;&quot;&gt;小车和上位机绑定同一网络下的所有IP的指定port&lt;/font&gt;" style="rounded=1;whiteSpace=wrap;html=1;" vertex="1" parent="1">
          <mxGeometry y="200" width="200" height="80" as="geometry" />
        </mxCell>
        <mxCell id="xWqsC73nyLLBT6MzewJM-57" value="&lt;font style=&quot;font-size: 18px;&quot;&gt;将指令字符串封装成json类型，再将其转换为字节流形式&lt;/font&gt;" style="rounded=1;whiteSpace=wrap;html=1;" vertex="1" parent="1">
          <mxGeometry x="240" y="200" width="240" height="80" as="geometry" />
        </mxCell>
        <mxCell id="xWqsC73nyLLBT6MzewJM-58" value="&lt;font style=&quot;font-size: 18px;&quot;&gt;UDP发送&lt;/font&gt;" style="rounded=1;whiteSpace=wrap;html=1;" vertex="1" parent="1">
          <mxGeometry x="520" y="200" width="120" height="80" as="geometry" />
        </mxCell>
        <mxCell id="xWqsC73nyLLBT6MzewJM-59" value="&lt;font style=&quot;font-size: 18px;&quot;&gt;小车Socket监听，进行指令解析&lt;/font&gt;" style="rounded=1;whiteSpace=wrap;html=1;" vertex="1" parent="1">
          <mxGeometry x="680" y="200" width="150" height="80" as="geometry" />
        </mxCell>
        <mxCell id="xWqsC73nyLLBT6MzewJM-60" value="&lt;font style=&quot;font-size: 18px;&quot;&gt;电机驱动&lt;/font&gt;" style="rounded=1;whiteSpace=wrap;html=1;" vertex="1" parent="1">
          <mxGeometry x="870" y="200" width="120" height="80" as="geometry" />
        </mxCell>
        <mxCell id="xWqsC73nyLLBT6MzewJM-61" value="" style="shape=flexArrow;endArrow=classic;html=1;rounded=0;" edge="1" parent="1">
          <mxGeometry width="50" height="50" relative="1" as="geometry">
            <mxPoint x="200" y="239.29" as="sourcePoint" />
            <mxPoint x="240" y="239.29" as="targetPoint" />
          </mxGeometry>
        </mxCell>
        <mxCell id="xWqsC73nyLLBT6MzewJM-66" value="" style="shape=flexArrow;endArrow=classic;html=1;rounded=0;" edge="1" parent="1">
          <mxGeometry width="50" height="50" relative="1" as="geometry">
            <mxPoint x="480" y="239.28999999999996" as="sourcePoint" />
            <mxPoint x="520" y="239.28999999999996" as="targetPoint" />
          </mxGeometry>
        </mxCell>
        <mxCell id="xWqsC73nyLLBT6MzewJM-67" value="" style="shape=flexArrow;endArrow=classic;html=1;rounded=0;" edge="1" parent="1">
          <mxGeometry width="50" height="50" relative="1" as="geometry">
            <mxPoint x="640" y="239.28999999999996" as="sourcePoint" />
            <mxPoint x="680" y="239.28999999999996" as="targetPoint" />
          </mxGeometry>
        </mxCell>
        <mxCell id="xWqsC73nyLLBT6MzewJM-68" value="" style="shape=flexArrow;endArrow=classic;html=1;rounded=0;" edge="1" parent="1">
          <mxGeometry width="50" height="50" relative="1" as="geometry">
            <mxPoint x="830" y="239.28999999999996" as="sourcePoint" />
            <mxPoint x="870" y="239.28999999999996" as="targetPoint" />
          </mxGeometry>
        </mxCell>
      </root>
    </mxGraphModel>
  </diagram>
</mxfile>
